<svg width="28" height="28" viewBox="0 0 28 28" fill="none" xmlns="http://www.w3.org/2000/svg">
<rect width="28" height="28" rx="8" fill="#094062"/>
<path d="M10.2221 14.0629C10.2221 13.687 10.5338 13.3754 10.9096 13.3754H15.9329V5.62036C15.9238 5.18036 15.5754 4.83203 15.1354 4.83203C9.73625 4.83203 5.96875 8.59953 5.96875 13.9987C5.96875 19.3979 9.73625 23.1654 15.1354 23.1654C15.5663 23.1654 15.9238 22.817 15.9238 22.377V14.7412H10.9096C10.5246 14.7504 10.2221 14.4387 10.2221 14.0629Z" fill="white"/>
<path d="M21.8291 13.5775L19.2258 10.965C18.9599 10.6992 18.5199 10.6992 18.2541 10.965C17.9883 11.2308 17.9883 11.6708 18.2541 11.9367L19.6841 13.3667H15.9258V14.7417H19.6749L18.2449 16.1717C17.9791 16.4375 17.9791 16.8775 18.2449 17.1433C18.3824 17.2808 18.5566 17.345 18.7308 17.345C18.9049 17.345 19.0791 17.2808 19.2166 17.1433L21.8199 14.5308C22.0949 14.2742 22.0949 13.8433 21.8291 13.5775Z" fill="white"/>
</svg>
