<svg width="28" height="29" viewBox="0 0 28 29" fill="none" xmlns="http://www.w3.org/2000/svg">
<rect width="28" height="28" rx="8" fill="#094062"/>
<g filter="url(#filter0_di_84_3366)">
<path d="M22.7358 17.6025C22.5891 17.355 22.1766 16.97 21.15 17.1533C20.5816 17.2541 20.0041 17.3 19.4266 17.2725C17.2908 17.1808 15.3566 16.2 14.0091 14.6875C12.8175 13.3583 12.0841 11.6258 12.075 9.7558C12.075 8.7108 12.2766 7.70246 12.6891 6.74913C13.0925 5.8233 12.8083 5.33746 12.6066 5.1358C12.3958 4.92496 11.9008 4.63163 10.9291 5.03496C7.17998 6.61163 4.86081 10.37 5.13581 14.3941C5.41081 18.18 8.06914 21.4158 11.5891 22.635C12.4325 22.9283 13.3216 23.1025 14.2383 23.1391C14.385 23.1483 14.5316 23.1575 14.6783 23.1575C17.7491 23.1575 20.6275 21.7091 22.4425 19.2433C23.0566 18.3908 22.8916 17.85 22.7358 17.6025Z" fill="#FCFCFC"/>
</g>
<defs>
<filter id="filter0_di_84_3366" x="0" y="2" width="28" height="28" filterUnits="userSpaceOnUse" color-interpolation-filters="sRGB">
<feFlood flood-opacity="0" result="BackgroundImageFix"/>
<feColorMatrix in="SourceAlpha" type="matrix" values="0 0 0 0 0 0 0 0 0 0 0 0 0 0 0 0 0 0 127 0" result="hardAlpha"/>
<feOffset dy="2"/>
<feGaussianBlur stdDeviation="1.5"/>
<feComposite in2="hardAlpha" operator="out"/>
<feColorMatrix type="matrix" values="0 0 0 0 0 0 0 0 0 0 0 0 0 0 0 0 0 0 0.18 0"/>
<feBlend mode="multiply" in2="BackgroundImageFix" result="effect1_dropShadow_84_3366"/>
<feBlend mode="normal" in="SourceGraphic" in2="effect1_dropShadow_84_3366" result="shape"/>
<feColorMatrix in="SourceAlpha" type="matrix" values="0 0 0 0 0 0 0 0 0 0 0 0 0 0 0 0 0 0 127 0" result="hardAlpha"/>
<feOffset dy="-1"/>
<feGaussianBlur stdDeviation="1"/>
<feComposite in2="hardAlpha" operator="arithmetic" k2="-1" k3="1"/>
<feColorMatrix type="matrix" values="0 0 0 0 0.87181 0 0 0 0 0.87181 0 0 0 0 0.87181 0 0 0 1 0"/>
<feBlend mode="multiply" in2="shape" result="effect2_innerShadow_84_3366"/>
</filter>
</defs>
</svg>
