<svg width="28" height="28" viewBox="0 0 28 28" fill="none" xmlns="http://www.w3.org/2000/svg">
<rect width="28" height="28" rx="8" fill="#094062"/>
<path d="M22.1577 12.0292L22.6985 21.095C22.7168 21.3425 22.5977 21.5075 22.5335 21.5808C22.4602 21.6633 22.3043 21.7917 22.0477 21.7917H19.5452L21.5252 12.0292H22.1577ZM23.166 8.5L23.1568 8.51833C23.1752 8.73833 23.1568 8.9675 23.1018 9.19667L16.346 21.5992C16.126 22.525 15.301 23.1667 14.3477 23.1667H22.0477C23.2302 23.1667 24.1652 22.1675 24.0735 20.985L23.166 8.5Z" fill="white"/>
<path d="M13.4959 5.05458C13.5876 4.68792 13.3584 4.31208 12.9917 4.22042C12.6251 4.13792 12.2492 4.35792 12.1576 4.72458L11.6992 6.62208H13.1109L13.4959 5.05458Z" fill="white"/>
<path d="M19.5452 5.02747C19.6277 4.65164 19.3893 4.29414 19.0135 4.21164C18.6468 4.12914 18.2802 4.36747 18.1977 4.7433L17.7852 6.6408H19.1968L19.5452 5.02747Z" fill="white"/>
<path d="M23.0008 7.88745C22.6983 7.15411 21.9833 6.63161 21.1033 6.63161H19.1966L18.6833 9.00578C18.61 9.32661 18.3258 9.54661 18.0141 9.54661C17.9683 9.54661 17.9133 9.54661 17.8675 9.52828C17.5008 9.44578 17.2625 9.07911 17.3358 8.71245L17.785 6.62245H13.11L12.5325 9.00578C12.4591 9.31745 12.175 9.52828 11.8633 9.52828C11.8083 9.52828 11.7533 9.51911 11.6983 9.50995C11.3316 9.41828 11.1025 9.05161 11.1941 8.67578L11.6891 6.61328H9.82829C8.92996 6.61328 8.13246 7.19995 7.86662 8.06161L4.00746 20.4824C3.60412 21.8116 4.58496 23.1683 5.96912 23.1683H18.0141C18.9675 23.1683 19.7925 22.5266 20.0125 21.6008L23.1016 9.19828C23.1566 8.96911 23.175 8.73995 23.1566 8.51995C23.1383 8.29995 23.0925 8.07995 23.0008 7.88745ZM16.4741 18.3558H9.14079C8.76496 18.3558 8.45329 18.0441 8.45329 17.6683C8.45329 17.2924 8.76496 16.9808 9.14079 16.9808H16.4741C16.85 16.9808 17.1616 17.2924 17.1616 17.6683C17.1616 18.0441 16.85 18.3558 16.4741 18.3558ZM17.3908 14.6891H10.0575C9.68162 14.6891 9.36996 14.3774 9.36996 14.0016C9.36996 13.6258 9.68162 13.3141 10.0575 13.3141H17.3908C17.7666 13.3141 18.0783 13.6258 18.0783 14.0016C18.0783 14.3774 17.7666 14.6891 17.3908 14.6891Z" fill="white"/>
</svg>
