<svg width="28" height="28" viewBox="0 0 28 28" fill="none" xmlns="http://www.w3.org/2000/svg">
<rect width="28" height="28" rx="8" fill="#094062"/>
<g filter="url(#filter0_di_84_3382)">
<path d="M23.1666 9.92087C23.1666 10.5259 22.6716 11.0209 22.0666 11.0209H5.93325C5.32825 11.0209 4.83325 10.5259 4.83325 9.92087V9.9117C4.83325 7.81253 6.52909 6.1167 8.62825 6.1167H19.3624C21.4616 6.1167 23.1666 7.8217 23.1666 9.92087Z" fill="#FCFCFC"/>
<path d="M4.83325 13.4959V18.0884C4.83325 20.1875 6.52909 21.8834 8.62825 21.8834H19.3624C21.4616 21.8834 23.1666 20.1784 23.1666 18.0792V13.4959C23.1666 12.8909 22.6716 12.3959 22.0666 12.3959H5.93325C5.32825 12.3959 4.83325 12.8909 4.83325 13.4959ZM10.3333 18.8125H8.49992C8.12409 18.8125 7.81242 18.5009 7.81242 18.125C7.81242 17.7492 8.12409 17.4375 8.49992 17.4375H10.3333C10.7091 17.4375 11.0208 17.7492 11.0208 18.125C11.0208 18.5009 10.7091 18.8125 10.3333 18.8125ZM16.2916 18.8125H12.6249C12.2491 18.8125 11.9374 18.5009 11.9374 18.125C11.9374 17.7492 12.2491 17.4375 12.6249 17.4375H16.2916C16.6674 17.4375 16.9791 17.7492 16.9791 18.125C16.9791 18.5009 16.6674 18.8125 16.2916 18.8125Z" fill="#FCFCFC"/>
</g>
<defs>
<filter id="filter0_di_84_3382" x="0" y="2" width="28" height="28" filterUnits="userSpaceOnUse" color-interpolation-filters="sRGB">
<feFlood flood-opacity="0" result="BackgroundImageFix"/>
<feColorMatrix in="SourceAlpha" type="matrix" values="0 0 0 0 0 0 0 0 0 0 0 0 0 0 0 0 0 0 127 0" result="hardAlpha"/>
<feOffset dy="2"/>
<feGaussianBlur stdDeviation="1.5"/>
<feComposite in2="hardAlpha" operator="out"/>
<feColorMatrix type="matrix" values="0 0 0 0 0 0 0 0 0 0 0 0 0 0 0 0 0 0 0.18 0"/>
<feBlend mode="multiply" in2="BackgroundImageFix" result="effect1_dropShadow_84_3382"/>
<feBlend mode="normal" in="SourceGraphic" in2="effect1_dropShadow_84_3382" result="shape"/>
<feColorMatrix in="SourceAlpha" type="matrix" values="0 0 0 0 0 0 0 0 0 0 0 0 0 0 0 0 0 0 127 0" result="hardAlpha"/>
<feOffset dy="-1"/>
<feGaussianBlur stdDeviation="1"/>
<feComposite in2="hardAlpha" operator="arithmetic" k2="-1" k3="1"/>
<feColorMatrix type="matrix" values="0 0 0 0 0.87181 0 0 0 0 0.87181 0 0 0 0 0.87181 0 0 0 1 0"/>
<feBlend mode="multiply" in2="shape" result="effect2_innerShadow_84_3382"/>
</filter>
</defs>
</svg>
