<svg width="14" height="14" viewBox="0 0 14 14" fill="none" xmlns="http://www.w3.org/2000/svg">
<path d="M12.8334 9.76503V2.7242C12.8334 2.0242 12.2617 1.50503 11.5675 1.56336H11.5325C10.3075 1.66836 8.44669 2.29253 7.40835 2.94586L7.30919 3.01003C7.14002 3.11503 6.86002 3.11503 6.69085 3.01003L6.54502 2.92253C5.50669 2.27503 3.65169 1.6567 2.42669 1.55753C1.73252 1.4992 1.16669 2.0242 1.16669 2.71836V9.76503C1.16669 10.325 1.62169 10.85 2.18169 10.92L2.35085 10.9434C3.61669 11.1125 5.57085 11.7542 6.69085 12.3667L6.71419 12.3784C6.87169 12.4659 7.12252 12.4659 7.27419 12.3784C8.39419 11.76 10.3542 11.1125 11.6259 10.9434L11.8184 10.92C12.3784 10.85 12.8334 10.325 12.8334 9.76503Z" stroke="#1A1D1F" stroke-width="1.3" stroke-linecap="round" stroke-linejoin="round"/>
<path d="M7 3.20251V11.9525" stroke="#1A1D1F" stroke-width="1.3" stroke-linecap="round" stroke-linejoin="round"/>
</svg>
