<svg width="28" height="28" viewBox="0 0 28 28" fill="none" xmlns="http://www.w3.org/2000/svg">
<path d="M20.9976 6.99998C20.2859 6.99998 19.6326 6.59165 19.3059 5.96165L18.4659 4.26998C17.9293 3.20831 16.5293 2.33331 15.3393 2.33331H12.6676C11.4659 2.33331 10.0659 3.20831 9.52926 4.26998L8.68926 5.96165C8.36259 6.59165 7.70926 6.99998 6.99759 6.99998C4.46592 6.99998 2.45926 9.13498 2.62259 11.655L3.22926 21.2916C3.36926 23.695 4.66426 25.6666 7.88426 25.6666H20.1109C23.3309 25.6666 24.6143 23.695 24.7659 21.2916L25.3726 11.655C25.5359 9.13498 23.5293 6.99998 20.9976 6.99998ZM12.2476 8.45831H15.7476C16.2259 8.45831 16.6226 8.85498 16.6226 9.33331C16.6226 9.81165 16.2259 10.2083 15.7476 10.2083H12.2476C11.7693 10.2083 11.3726 9.81165 11.3726 9.33331C11.3726 8.85498 11.7693 8.45831 12.2476 8.45831ZM13.9976 21.14C11.8276 21.14 10.0543 19.3783 10.0543 17.1966C10.0543 15.015 11.8159 13.2533 13.9976 13.2533C16.1793 13.2533 17.9409 15.015 17.9409 17.1966C17.9409 19.3783 16.1676 21.14 13.9976 21.14Z" fill="white"/>
</svg>
