<svg width="14" height="14" viewBox="0 0 14 14" fill="none" xmlns="http://www.w3.org/2000/svg">
<path d="M9.08878 7.00002C9.08878 8.15502 8.15544 9.08835 7.00044 9.08835C5.84544 9.08835 4.91211 8.15502 4.91211 7.00002C4.91211 5.84502 5.84544 4.91168 7.00044 4.91168C8.15544 4.91168 9.08878 5.84502 9.08878 7.00002Z" stroke="#1A1D1F" stroke-width="1.3" stroke-linecap="round" stroke-linejoin="round"/>
<path d="M7.00089 11.8242C9.06005 11.8242 10.9792 10.6108 12.3151 8.51085C12.8401 7.68835 12.8401 6.30585 12.3151 5.48335C10.9792 3.38335 9.06005 2.17001 7.00089 2.17001C4.94172 2.17001 3.02255 3.38335 1.68672 5.48335C1.16172 6.30585 1.16172 7.68835 1.68672 8.51085C3.02255 10.6108 4.94172 11.8242 7.00089 11.8242Z" stroke="#1A1D1F" stroke-width="1.3" stroke-linecap="round" stroke-linejoin="round"/>
</svg>
