<svg width="16" height="16" viewBox="0 0 16 16" fill="none" xmlns="http://www.w3.org/2000/svg">
<path fill-rule="evenodd" clip-rule="evenodd" d="M11.2976 0.048C10.4448 0.00799999 10.1736 0 8 0C5.8264 0 5.5552 0.0104 4.7024 0.0480001C3.8496 0.0880001 3.2704 0.2216 2.76 0.42C2.22594 0.620584 1.74214 0.935386 1.3424 1.3424C0.935043 1.74186 0.620189 2.22574 0.42 2.76C0.2216 3.2704 0.0879999 3.8496 0.048 4.7024C0.00799999 5.5552 0 5.8264 0 8C0 10.1736 0.0104 10.4448 0.0480001 11.2976C0.0880001 12.1496 0.2216 12.7304 0.42 13.24C0.620746 13.774 0.935526 14.2577 1.3424 14.6576C1.74202 15.0648 2.22586 15.3796 2.76 15.58C3.2704 15.7776 3.8504 15.912 4.7024 15.952C5.5552 15.992 5.8264 16 8 16C10.1736 16 10.4448 15.9896 11.2976 15.952C12.1496 15.912 12.7304 15.7776 13.24 15.58C13.7738 15.379 14.2576 15.0643 14.6576 14.6576C15.0649 14.2581 15.3797 13.7742 15.58 13.24C15.7776 12.7296 15.912 12.1496 15.952 11.2976C15.992 10.4448 16 10.1736 16 8C16 5.8264 15.9896 5.5552 15.952 4.7024C15.912 3.8504 15.7776 3.2696 15.58 2.76C15.3792 2.22607 15.0644 1.74232 14.6576 1.3424C14.2128 0.8984 13.768 0.6232 13.24 0.42C12.7296 0.2216 12.1496 0.0879999 11.2976 0.048ZM4 8C4 5.79086 5.79086 4 8 4C10.2091 4 12 5.79086 12 8C12 10.2091 10.2091 12 8 12C5.79086 12 4 10.2091 4 8ZM13 4C13 3.44772 12.5523 3 12 3C11.4477 3 11 3.44772 11 4C11 4.55228 11.4477 5 12 5C12.5523 5 13 4.55228 13 4ZM10 7.5C10 6.11929 8.88071 5 7.5 5C6.11929 5 5 6.11929 5 7.5C5 8.88071 6.11929 10 7.5 10C8.88071 10 10 8.88071 10 7.5Z" fill="white"/>
</svg>
