<svg width="20" height="20" viewBox="0 0 20 20" fill="none" xmlns="http://www.w3.org/2000/svg">
<path fill-rule="evenodd" clip-rule="evenodd" d="M9.99984 1.66667C10.4601 1.66667 10.8332 2.03976 10.8332 2.5V4.16667C10.8332 4.62691 10.4601 5 9.99984 5C9.5396 5 9.1665 4.62691 9.1665 4.16667V2.5C9.1665 2.03976 9.5396 1.66667 9.99984 1.66667Z" fill="#1A1D1F"/>
<path fill-rule="evenodd" clip-rule="evenodd" d="M9.99984 15C10.4601 15 10.8332 15.3731 10.8332 15.8333V17.5C10.8332 17.9602 10.4601 18.3333 9.99984 18.3333C9.5396 18.3333 9.1665 17.9602 9.1665 17.5V15.8333C9.1665 15.3731 9.5396 15 9.99984 15Z" fill="#1A1D1F"/>
<path fill-rule="evenodd" clip-rule="evenodd" d="M4.10732 4.10745C4.43276 3.78201 4.9604 3.78201 5.28583 4.10745L6.46434 5.28596C6.78978 5.61139 6.78978 6.13903 6.46434 6.46447C6.13891 6.78991 5.61127 6.78991 5.28583 6.46447L4.10732 5.28596C3.78189 4.96052 3.78189 4.43288 4.10732 4.10745Z" fill="#1A1D1F"/>
<path fill-rule="evenodd" clip-rule="evenodd" d="M13.5355 13.5355C13.861 13.2101 14.3886 13.2101 14.7141 13.5355L15.8926 14.714C16.218 15.0395 16.218 15.5671 15.8926 15.8926C15.5671 16.218 15.0395 16.218 14.7141 15.8926L13.5355 14.714C13.2101 14.3886 13.2101 13.861 13.5355 13.5355Z" fill="#1A1D1F"/>
<path fill-rule="evenodd" clip-rule="evenodd" d="M1.6665 9.99999C1.6665 9.53976 2.0396 9.16666 2.49984 9.16666L4.1665 9.16666C4.62674 9.16666 4.99984 9.53976 4.99984 9.99999C4.99984 10.4602 4.62674 10.8333 4.1665 10.8333L2.49984 10.8333C2.0396 10.8333 1.6665 10.4602 1.6665 9.99999Z" fill="#1A1D1F"/>
<path fill-rule="evenodd" clip-rule="evenodd" d="M15 9.99999C15 9.53976 15.3731 9.16666 15.8333 9.16666L17.5 9.16666C17.9602 9.16666 18.3333 9.53976 18.3333 9.99999C18.3333 10.4602 17.9602 10.8333 17.5 10.8333L15.8333 10.8333C15.3731 10.8333 15 10.4602 15 9.99999Z" fill="#1A1D1F"/>
<path fill-rule="evenodd" clip-rule="evenodd" d="M4.10752 15.8927C3.78208 15.5672 3.78208 15.0396 4.10752 14.7142L5.28603 13.5357C5.61147 13.2102 6.13911 13.2102 6.46454 13.5357C6.78998 13.8611 6.78998 14.3887 6.46454 14.7142L5.28603 15.8927C4.9606 16.2181 4.43296 16.2181 4.10752 15.8927Z" fill="#1A1D1F"/>
<path fill-rule="evenodd" clip-rule="evenodd" d="M13.5357 6.46447C13.2103 6.13903 13.2103 5.61139 13.5357 5.28596L14.7143 4.10744C15.0397 3.78201 15.5673 3.78201 15.8928 4.10744C16.2182 4.43288 16.2182 4.96052 15.8928 5.28596L14.7143 6.46447C14.3888 6.7899 13.8612 6.7899 13.5357 6.46447Z" fill="#1A1D1F"/>
</svg>
