<svg width="48" height="48" viewBox="0 0 48 48" fill="none" xmlns="http://www.w3.org/2000/svg">
<g filter="url(#filter0_b_69_3063)">
<rect width="48" height="48" rx="12" fill="#FCFCFC" fill-opacity="0.64"/>
</g>
<path d="M24 14C18.48 14 14 18.48 14 24C14 29.52 18.48 34 24 34C29.52 34 34 29.52 34 24C34 18.48 29.52 14 24 14ZM26.66 25.73L25.38 26.47L24.1 27.21C22.45 28.16 21.1 27.38 21.1 25.48V24V22.52C21.1 20.61 22.45 19.84 24.1 20.79L25.38 21.53L26.66 22.27C28.31 23.22 28.31 24.78 26.66 25.73Z" fill="#FCFCFC"/>
<defs>
<filter id="filter0_b_69_3063" x="-6" y="-6" width="60" height="60" filterUnits="userSpaceOnUse" color-interpolation-filters="sRGB">
<feFlood flood-opacity="0" result="BackgroundImageFix"/>
<feGaussianBlur in="BackgroundImage" stdDeviation="3"/>
<feComposite in2="SourceAlpha" operator="in" result="effect1_backgroundBlur_69_3063"/>
<feBlend mode="normal" in="SourceGraphic" in2="effect1_backgroundBlur_69_3063" result="shape"/>
</filter>
</defs>
</svg>
