<svg width="14" height="14" viewBox="0 0 14 14" fill="none" xmlns="http://www.w3.org/2000/svg">
<path d="M7.09349 6.34085C7.03516 6.33502 6.96516 6.33502 6.90099 6.34085C5.51266 6.29419 4.41016 5.15669 4.41016 3.75669C4.41016 2.32752 5.56516 1.16669 7.00016 1.16669C8.42932 1.16669 9.59016 2.32752 9.59016 3.75669C9.58432 5.15669 8.48182 6.29419 7.09349 6.34085Z" stroke="#1A1D1F" stroke-width="1.3" stroke-linecap="round" stroke-linejoin="round"/>
<path d="M4.17594 8.49337C2.76427 9.43837 2.76427 10.9784 4.17594 11.9175C5.7801 12.9909 8.41094 12.9909 10.0151 11.9175C11.4268 10.9725 11.4268 9.43254 10.0151 8.49337C8.41677 7.42587 5.78594 7.42587 4.17594 8.49337Z" stroke="#1A1D1F" stroke-width="1.3" stroke-linecap="round" stroke-linejoin="round"/>
</svg>
