<svg width="14" height="14" viewBox="0 0 14 14" fill="none" xmlns="http://www.w3.org/2000/svg">
<path d="M5.86251 1.47585L2.35084 3.76835C1.22501 4.50335 1.22501 6.14835 2.35084 6.88335L5.86251 9.17585C6.49251 9.59002 7.53084 9.59002 8.16084 9.17585L11.655 6.88335C12.775 6.14835 12.775 4.50919 11.655 3.77419L8.16084 1.48169C7.53084 1.06169 6.49251 1.06169 5.86251 1.47585Z" stroke="#1A1D1F" stroke-width="1.3" stroke-linecap="round" stroke-linejoin="round"/>
<path d="M3.28415 7.63L3.27832 10.3658C3.27832 11.1067 3.84999 11.9 4.54999 12.1333L6.41082 12.7517C6.73165 12.8567 7.26249 12.8567 7.58915 12.7517L9.44999 12.1333C10.15 11.9 10.7217 11.1067 10.7217 10.3658V7.65917" stroke="#1A1D1F" stroke-width="1.3" stroke-linecap="round" stroke-linejoin="round"/>
</svg>
