<svg width="15" height="13" viewBox="0 0 15 13" fill="none" xmlns="http://www.w3.org/2000/svg">
<path d="M14.1912 2.39947C13.6669 2.64398 13.1108 2.80456 12.5415 2.87589C13.1416 2.49753 13.5907 1.90207 13.8052 1.20046C13.242 1.55379 12.6246 1.80141 11.981 1.93536C11.0922 0.932794 9.67492 0.685729 8.52724 1.33329C7.37957 1.98085 6.78848 3.36111 7.08681 4.69686C4.77708 4.57482 2.6251 3.42472 1.16648 1.53279C0.911189 1.99506 0.777029 2.52055 0.777747 3.05546C0.777747 4.10532 1.28461 5.03282 2.05522 5.57585C1.59918 5.56072 1.15318 5.43088 0.754395 5.19718L0.754395 5.23483C0.754395 6.6758 1.71782 7.9178 3.05807 8.204C2.63492 8.32489 2.19124 8.34276 1.76058 8.25626C2.13635 9.49016 3.21487 10.3356 4.44396 10.3596C3.24062 11.3559 1.71095 11.807 0.191895 11.6137C1.50487 12.5038 3.03331 12.9764 4.59437 12.9748C9.87802 12.9749 12.7674 8.36052 12.7674 4.35874C12.7674 4.22841 12.764 4.09663 12.7585 3.96775C13.3209 3.53924 13.8063 3.00841 14.1919 2.4002L14.1912 2.39947Z" fill="white"/>
</svg>
